<?xml version="1.0" standalone="no"?>
<!DOCTYPE svg PUBLIC "-//W3C//DTD SVG 20010904//EN"
 "http://www.w3.org/TR/2001/REC-SVG-20010904/DTD/svg10.dtd">
<svg version="1.0" xmlns="http://www.w3.org/2000/svg"
 width="279.000000pt" height="279.000000pt" viewBox="0 0 279.000000 279.000000"
 preserveAspectRatio="xMidYMid meet">
<metadata>
Created by potrace 1.11, written by Peter Selinger 2001-2013
</metadata>
<g transform="translate(0.000000,279.000000) scale(0.100000,-0.100000)"
fill="#000000" stroke="none">
<path d="M1195 2476 c-76 -17 -178 -59 -229 -93 -98 -64 -185 -171 -230 -283
-10 -25 -22 -54 -26 -65 -5 -11 -11 -33 -14 -50 -3 -16 -11 -52 -16 -80 -14
-65 -13 -362 0 -440 6 -33 14 -76 17 -95 13 -70 80 -248 127 -333 83 -154 191
-247 318 -276 26 -6 51 -11 55 -10 5 1 34 1 66 0 l58 -1 -3 -32 c-3 -31 -6
-33 -73 -51 -150 -38 -245 -100 -289 -189 -28 -56 -33 -106 -15 -158 10 -29
10 -34 -7 -43 -65 -34 -155 -162 -169 -240 l-7 -37 116 0 c88 0 116 3 116 13
0 7 18 30 39 51 l39 38 31 -42 c17 -24 31 -47 31 -52 0 -4 7 -8 15 -8 27 0 16
25 -55 128 -74 109 -120 191 -120 217 0 31 29 44 131 60 223 34 378 45 478 34
108 -11 230 -37 249 -52 29 -23 7 -85 -92 -260 -31 -54 -56 -105 -56 -113 0
-11 18 -14 80 -14 l80 0 45 70 45 71 36 -25 c35 -24 84 -85 84 -105 0 -7 41
-11 115 -11 l115 0 0 28 c-1 97 -107 252 -206 300 -33 15 -34 16 -28 66 17
147 -86 252 -285 290 -46 9 -104 16 -130 16 l-46 0 -13 62 -12 63 37 30 c101
81 173 179 216 298 21 59 22 76 21 342 -1 196 -7 317 -18 404 -39 293 -151
487 -321 555 -85 34 -209 43 -300 22z m155 -53 c25 -17 106 -102 126 -132 34
-50 94 -189 122 -281 18 -58 51 -230 62 -320 40 -315 14 -531 -87 -737 -31
-65 -40 -74 -86 -96 -29 -13 -74 -30 -102 -36 -55 -13 -101 -25 -155 -38 -65
-16 -178 30 -251 101 -84 83 -195 284 -220 396 -4 19 -15 64 -23 99 -34 135
-48 317 -32 431 8 63 34 185 45 215 40 110 119 224 201 290 44 36 163 91 225
104 33 7 65 15 70 16 29 9 84 3 105 -12z m454 -1804 c29 -10 40 -20 43 -39 2
-13 12 -34 23 -45 24 -26 26 -62 4 -86 -14 -16 -20 -16 -57 -4 -23 7 -58 18
-77 24 -91 27 -367 23 -550 -9 -108 -18 -125 -23 -150 -40 -14 -10 -36 -21
-49 -25 -23 -7 -24 -5 -18 24 8 37 48 94 86 120 35 24 167 69 215 73 35 3 40
0 49 -27 13 -39 36 -65 58 -65 10 0 21 -4 24 -10 3 -5 30 -10 60 -10 49 0 58
4 95 38 31 30 40 46 40 72 l0 33 83 -5 c45 -3 100 -12 121 -19z"/>
<path d="M1348 2003 c-14 -2 -42 -20 -62 -39 -109 -106 -32 -296 114 -280 54
6 97 26 130 61 32 34 40 124 15 171 -33 62 -120 100 -197 87z"/>
<path d="M845 1988 c-76 -27 -115 -78 -115 -148 0 -95 98 -173 195 -154 19 3
54 23 77 44 42 37 43 39 43 103 0 76 -18 108 -81 144 -42 25 -73 27 -119 11z"/>
<path d="M1010 1683 c-14 -9 -27 -19 -30 -22 -5 -6 -15 -11 -132 -65 -68 -32
-78 -40 -78 -62 0 -16 13 -39 34 -60 41 -41 52 -95 32 -156 -8 -24 -17 -62
-21 -85 -6 -38 -4 -42 22 -55 16 -7 29 -23 31 -36 2 -14 13 -24 29 -28 31 -8
527 4 598 14 l50 7 3 125 c3 142 -9 207 -42 219 -20 8 -177 6 -433 -3 -68 -3
-123 -3 -123 -1 0 2 32 14 71 26 97 31 133 56 137 97 3 26 -4 40 -31 67 -40
40 -77 45 -117 18z m62 -58 c-5 -27 15 -34 36 -13 9 9 12 7 12 -10 0 -15 -6
-22 -18 -22 -10 0 -22 -3 -25 -6 -6 -7 -111 -44 -112 -41 -1 1 -6 14 -12 29
-11 25 -10 28 35 56 76 48 92 49 84 7z m-158 -71 c18 -46 -12 -63 -32 -19 -16
34 -15 35 7 35 10 0 22 -7 25 -16z m-70 -29 c18 -14 16 -45 -3 -45 -10 0 -41
39 -41 52 0 12 23 9 44 -7z m582 -127 c-34 -126 -44 -160 -49 -164 -2 -3 -32
-4 -65 -2 l-61 3 28 85 c31 92 34 94 125 99 25 1 27 -2 22 -21z m-410 1 c3 -6
3 -14 -2 -18 -15 -11 -39 -69 -60 -149 -3 -9 -17 -12 -46 -8 -24 2 -46 5 -50
5 -7 1 34 126 53 162 10 19 94 25 105 8z m134 5 c0 -3 -10 -26 -22 -52 -11
-26 -27 -65 -33 -87 -12 -38 -15 -40 -59 -46 -26 -3 -49 -2 -52 3 -5 8 32 141
47 171 8 13 23 17 64 17 30 0 55 -2 55 -6z m337 -171 c-2 -16 -4 -3 -4 27 0
30 2 43 4 28 2 -16 2 -40 0 -55z m-47 32 c0 -19 -4 -35 -10 -35 -11 0 -13 30
-4 54 10 25 14 19 14 -19z m-227 -92 c-7 -2 -19 -2 -25 0 -7 3 -2 5 12 5 14 0
19 -2 13 -5z"/>
<path d="M1404 396 c-8 -22 3 -49 19 -43 6 2 12 14 12 27 0 27 -22 39 -31 16z"/>
<path d="M1577 403 c-11 -10 -8 -41 4 -49 6 -3 18 1 27 9 13 13 13 19 2 31
-14 17 -23 20 -33 9z"/>
<path d="M1260 375 c0 -18 5 -25 20 -25 15 0 20 7 20 25 0 18 -5 25 -20 25
-15 0 -20 -7 -20 -25z"/>
<path d="M1120 350 c0 -13 7 -20 20 -20 13 0 20 7 20 20 0 13 -7 20 -20 20
-13 0 -20 -7 -20 -20z"/>
<path d="M1714 355 c-4 -9 -2 -21 4 -27 15 -15 44 -1 40 19 -4 23 -36 29 -44
8z"/>
<path d="M1012 304 c4 -21 22 -23 26 -1 2 10 -3 17 -13 17 -10 0 -15 -6 -13
-16z"/>
</g>
</svg>
